<?xml version="1.0" encoding="utf-8"?>
<!-- Generator: Adobe Illustrator 23.0.2, SVG Export Plug-In . SVG Version: 6.00 Build 0)  -->
<svg version="1.1" id="Lager_1" xmlns="http://www.w3.org/2000/svg" xmlns:xlink="http://www.w3.org/1999/xlink" x="0px" y="0px"
	 viewBox="0 0 300 300" style="enable-background:new 0 0 300 300;" xml:space="preserve">
<style type="text/css">
	.st0{fill:#F4F4F4;}
	.st1{fill:#2F879E;}
	.st2{fill:#69914B;}
	.st3{fill:#C39423;}
	.st4{fill:#A1618C;}
</style>
<g>
	<g>
		<g>
			<path class="st3" d="M136.9,89.5c-0.41,11.29-0.57,22.72-0.65,34.21c-6.06-3.4-11.52-7.67-11.7-12.79
				C124.25,102.38,129.54,93.53,136.9,89.5z"/>
		</g>
		<g>
			<path class="st3" d="M152.35,138.33c-0.36,18.44-0.88,37.02-0.22,55.1c-3.42,0.2-6.83-0.32-10.2-1.38
				c0.16-16.95,0.22-37.7,0.2-57.5C145.54,135.82,149.03,137.07,152.35,138.33z"/>
		</g>
		<g>
			<path class="st3" d="M152.9,86.63c0.34,11.2-0.18,22.47-0.27,33.69c-0.04,3.67-0.09,7.36-0.14,11.06
				c-1.81-0.72-3.69-1.51-5.61-2.4c-1.43-0.68-3.06-1.43-4.77-2.24c-0.04-14.62-0.11-28.35-0.22-39.23
				C145.91,86.33,149.55,86.06,152.9,86.63z"/>
		</g>
		<g>
			<path class="st3" d="M177.4,172.25c-0.7,9.16-9.01,16.06-18.03,19.57c-0.82,0.32-1.67,0.61-2.51,0.82
				c0-22.54,0.41-38.71,0.91-52.15c2.19,0.91,4.23,1.86,6.02,2.85C173.71,148.72,178.19,161.86,177.4,172.25z"/>
		</g>
		<g>
			<g>
				<path class="st3" d="M225.82,73.19C206.41,53.79,179.6,41.78,150,41.78c-29.6,0-56.41,12.01-75.82,31.41
					c-19.41,19.39-31.41,46.2-31.41,75.82c0,59.21,48.01,107.21,107.23,107.21c29.6,0,56.41-12.01,75.82-31.39
					c19.41-19.41,31.41-46.21,31.41-75.82C257.23,119.39,245.22,92.58,225.82,73.19z M168.47,197.84
					c-5.04,2.35-8.49,3.67-11.59,4.26c0.02,4.93,0.05,10.14,0.11,15.68c0.02,0.84-0.77,1.52-1.72,1.47
					c-0.79-0.05-1.43-0.59-1.52-1.31c-0.56-5.09-0.97-10.25-1.27-15.45c-2.94-0.04-6.11-0.64-10.61-1.54
					c-0.04,2.58-0.07,5.04-0.11,7.36c-0.05,2.53-0.14,5.25-1.24,7.22c-1.11,1.95-3.62,2.37-4.43,0.13
					c-0.39-1.08-0.27-2.37-0.16-3.58c0.38-4.07,0.57-8.15,0.66-12.24c-4.59-1.18-6.9-3.67-10.86-6.67
					c-5.52-4.19-12.01-13.35-10.32-19.08c0.66-2.22,3.33-1.72,4.32-1.08c5.63,3.75,5.88,12.38,12.24,16.18
					c1.54,0.93,3.1,1.77,4.66,2.53c-0.07-9.86-0.56-19.73-0.5-29.59c0.05-9.35,0.05-18.73,0.09-28.08c-3.49-1.4-6.74-2.85-9.41-4.39
					c-4.39-2.53-10.5-11.34-10.36-18.35c0.11-4.87-0.57-11.33,5.07-17.76c5.3-6.02,10.3-9.98,15.79-11.95
					c0.2-4.21,0.45-8.39,0.75-12.53c0.11-1.52,0.2-3.76,2.1-4.21c0.59-0.14,0.7,0.04,1.16,0.81c0.18,0.27,0.34,5.82,0.47,14.77
					c3.3-0.54,6.83-0.43,10.72,0.29c-0.22-2.87-0.5-5.72-0.88-8.57c-0.16-1.2-0.34-2.51,0.32-3.58c1.38-2.22,3.98-1.79,5.77,0.2
					c1.77,1.97,1.9,4.71,1.92,7.24c0.02,2.28,0.04,4.46,0.04,6.58c0.79,0.25,1.59,0.52,2.42,0.82c8.76,3.17,18.13,13.71,18.03,22.09
					c-0.02,1.56-1.47,2.72-3.15,2.56c-0.63-0.05-1.27-0.14-1.9-0.27c-1.49-0.32-2.04-2.87-2.04-2.87c-4-6.42-8.33-11.34-13.39-14.16
					c-0.18,16.29-0.9,28.74-1.58,44.48c4.26,1.56,7.97,2.92,10.81,4.8c13.39,8.85,14.75,19.48,15.79,25.45
					C187.38,181.26,177.86,193.5,168.47,197.84z"/>
			</g>
		</g>
	</g>
</g>
</svg>
