<?xml version="1.0" encoding="utf-8"?>
<!-- Generator: Adobe Illustrator 23.0.2, SVG Export Plug-In . SVG Version: 6.00 Build 0)  -->
<svg version="1.1" id="Lager_1" xmlns="http://www.w3.org/2000/svg" xmlns:xlink="http://www.w3.org/1999/xlink" x="0px" y="0px"
	 viewBox="0 0 215 215" style="enable-background:new 0 0 215 215;" xml:space="preserve">
<style type="text/css">
	.st0{fill:#C39423;}
</style>
<g>
	<g>
		<g>
			<path class="st0" d="M94.43,48.12c-0.41,11.27-0.57,22.67-0.65,34.14c-6.05-3.39-11.5-7.65-11.67-12.76
				C81.81,60.98,87.08,52.14,94.43,48.12z"/>
		</g>
		<g>
			<path class="st0" d="M109.84,96.85c-0.36,18.4-0.88,36.94-0.22,54.99c-3.41,0.2-6.82-0.32-10.18-1.38
				c0.16-16.92,0.22-37.62,0.2-57.38C103.05,94.35,106.53,95.59,109.84,96.85z"/>
		</g>
		<g>
			<path class="st0" d="M110.39,45.26c0.34,11.18-0.18,22.42-0.27,33.62c-0.04,3.66-0.09,7.34-0.14,11.04
				c-1.81-0.72-3.68-1.51-5.6-2.4c-1.43-0.68-3.05-1.43-4.76-2.24c-0.04-14.59-0.11-28.29-0.22-39.15
				C103.42,44.96,107.05,44.69,110.39,45.26z"/>
		</g>
		<g>
			<path class="st0" d="M134.84,130.7c-0.7,9.14-8.99,16.03-17.99,19.53c-0.82,0.32-1.67,0.61-2.5,0.82
				c0-22.49,0.41-38.63,0.91-52.04c2.19,0.91,4.22,1.86,6.01,2.84C131.16,107.22,135.63,120.33,134.84,130.7z"/>
		</g>
		<g>
			<g>
				<path class="st0" d="M183.16,31.85C163.79,12.49,137.04,0.5,107.5,0.5S51.21,12.49,31.84,31.85C12.47,51.2,0.5,77.95,0.5,107.51
					c0,59.09,47.91,106.99,107,106.99c29.54,0,56.29-11.99,75.66-31.33c19.37-19.37,31.34-46.12,31.34-75.66
					C214.5,77.95,202.52,51.2,183.16,31.85z M125.93,156.24c-5.03,2.35-8.47,3.66-11.57,4.25c0.02,4.92,0.05,10.12,0.11,15.65
					c0.02,0.84-0.77,1.52-1.72,1.47c-0.79-0.05-1.43-0.59-1.52-1.31c-0.56-5.08-0.97-10.23-1.27-15.42
					c-2.93-0.04-6.1-0.64-10.59-1.54c-0.04,2.57-0.07,5.03-0.11,7.34c-0.05,2.52-0.14,5.24-1.24,7.21
					c-1.11,1.95-3.61,2.37-4.42,0.13c-0.39-1.08-0.27-2.37-0.16-3.57c0.38-4.06,0.57-8.13,0.66-12.21
					c-4.58-1.18-6.89-3.66-10.84-6.66c-5.51-4.18-11.98-13.32-10.3-19.04c0.66-2.22,3.32-1.72,4.31-1.08
					c5.62,3.74,5.87,12.35,12.21,16.15c1.54,0.93,3.09,1.77,4.65,2.52c-0.07-9.84-0.56-19.69-0.5-29.53
					c0.05-9.33,0.05-18.69,0.09-28.02c-3.48-1.4-6.73-2.84-9.39-4.38c-4.38-2.52-10.48-11.32-10.34-18.31
					c0.11-4.86-0.57-11.31,5.06-17.72c5.29-6.01,10.28-9.96,15.76-11.93c0.2-4.2,0.45-8.37,0.75-12.5c0.11-1.52,0.2-3.75,2.1-4.2
					c0.59-0.14,0.7,0.04,1.16,0.81c0.18,0.27,0.34,5.81,0.47,14.74c3.29-0.54,6.82-0.43,10.7,0.29c-0.22-2.86-0.5-5.71-0.88-8.55
					c-0.16-1.2-0.34-2.5,0.32-3.57c1.38-2.22,3.97-1.79,5.76,0.2c1.77,1.97,1.9,4.7,1.92,7.23c0.02,2.28,0.04,4.45,0.04,6.57
					c0.79,0.25,1.59,0.52,2.41,0.82c8.74,3.16,18.09,13.68,17.99,22.04c-0.02,1.56-1.47,2.71-3.14,2.55
					c-0.63-0.05-1.27-0.14-1.9-0.27c-1.49-0.32-2.04-2.86-2.04-2.86c-3.99-6.41-8.31-11.32-13.36-14.13
					c-0.18,16.26-0.9,28.68-1.58,44.39c4.25,1.56,7.95,2.91,10.79,4.79c13.36,8.83,14.72,19.44,15.76,25.4
					C144.8,139.69,135.3,151.91,125.93,156.24z"/>
			</g>
		</g>
	</g>
</g>
</svg>
