<?xml version="1.0" encoding="utf-8"?>
<!-- Generator: Adobe Illustrator 23.0.2, SVG Export Plug-In . SVG Version: 6.00 Build 0)  -->
<svg version="1.1" id="Lager_1" xmlns="http://www.w3.org/2000/svg" xmlns:xlink="http://www.w3.org/1999/xlink" x="0px" y="0px"
	 viewBox="0 0 215 215" style="enable-background:new 0 0 215 215;" xml:space="preserve">
<style type="text/css">
	.st0{fill:#C39423;}
</style>
<g>
	<g>
		<g>
			<path class="st0" d="M94.4,48.1c-0.4,11.3-0.6,22.7-0.7,34.1c-6.1-3.4-11.5-7.7-11.7-12.8C81.8,61,87.1,52.1,94.4,48.1z"/>
		</g>
		<g>
			<path class="st0" d="M109.8,96.8c-0.4,18.4-0.9,36.9-0.2,55c-3.4,0.2-6.8-0.3-10.2-1.4c0.2-16.9,0.2-37.6,0.2-57.4
				C103.1,94.3,106.5,95.6,109.8,96.8z"/>
		</g>
		<g>
			<path class="st0" d="M110.4,45.3c0.3,11.2-0.2,22.4-0.3,33.6c0,3.7-0.1,7.3-0.1,11c-1.8-0.7-3.7-1.5-5.6-2.4
				c-1.4-0.7-3.1-1.4-4.8-2.2c0-14.6-0.1-28.3-0.2-39.2C103.4,45,107.1,44.7,110.4,45.3z"/>
		</g>
		<g>
			<path class="st0" d="M134.8,130.7c-0.7,9.1-9,16-18,19.5c-0.8,0.3-1.7,0.6-2.5,0.8c0-22.5,0.4-38.6,0.9-52c2.2,0.9,4.2,1.9,6,2.8
				C131.2,107.2,135.6,120.3,134.8,130.7z"/>
		</g>
		<g>
			<g>
				<path class="st0" d="M183.2,31.9C163.8,12.5,137,0.5,107.5,0.5s-56.3,12-75.7,31.4c-19.3,19.3-31.3,46-31.3,75.6
					c0,59.1,47.9,107,107,107c29.5,0,56.3-12,75.7-31.3c19.4-19.4,31.3-46.1,31.3-75.7S202.5,51.2,183.2,31.9z M125.9,156.2
					c-5,2.4-8.5,3.7-11.6,4.2c0,4.9,0.1,10.1,0.1,15.6c0,0.8-0.8,1.5-1.7,1.5c-0.8-0.1-1.4-0.6-1.5-1.3c-0.6-5.1-1-10.2-1.3-15.4
					c-2.9,0-6.1-0.6-10.6-1.5c0,2.6-0.1,5-0.1,7.3c-0.1,2.5-0.1,5.2-1.2,7.2c-1.1,1.9-3.6,2.4-4.4,0.1c-0.4-1.1-0.3-2.4-0.2-3.6
					c0.4-4.1,0.6-8.1,0.7-12.2c-4.6-1.2-6.9-3.7-10.8-6.7c-5.5-4.2-12-13.3-10.3-19c0.7-2.2,3.3-1.7,4.3-1.1
					c5.6,3.7,5.9,12.4,12.2,16.1c1.5,0.9,3.1,1.8,4.7,2.5c-0.1-9.8-0.6-19.7-0.5-29.5c0.1-9.3,0.1-18.7,0.1-28
					c-3.5-1.4-6.7-2.8-9.4-4.4C80,85.7,73.9,76.9,74,69.9c0.1-4.9-0.6-11.3,5.1-17.7c5.3-6,10.3-10,15.8-11.9
					c0.2-4.2,0.4-8.4,0.8-12.5c0.1-1.5,0.2-3.8,2.1-4.2c0.6-0.1,0.7,0,1.2,0.8c0.2,0.3,0.3,5.8,0.5,14.7c3.3-0.5,6.8-0.4,10.7,0.3
					c-0.2-2.9-0.5-5.7-0.9-8.5c-0.2-1.2-0.3-2.5,0.3-3.6c1.4-2.2,4-1.8,5.8,0.2s1.9,4.7,1.9,7.2c0,2.3,0,4.5,0,6.6
					c0.8,0.2,1.6,0.5,2.4,0.8c8.7,3.2,18.1,13.7,18,22c0,1.6-1.5,2.7-3.1,2.6c-0.6-0.1-1.3-0.1-1.9-0.3c-1.5-0.3-2-2.9-2-2.9
					c-4-6.4-8.3-11.3-13.4-14.1c-0.2,16.3-0.9,28.7-1.6,44.4c4.2,1.6,7.9,2.9,10.8,4.8c13.4,8.8,14.7,19.4,15.8,25.4
					C144.8,139.7,135.3,151.9,125.9,156.2z"/>
			</g>
		</g>
	</g>
</g>
</svg>
