<?xml version="1.0" encoding="utf-8"?>
<!-- Generator: Adobe Illustrator 23.0.2, SVG Export Plug-In . SVG Version: 6.00 Build 0)  -->
<svg version="1.1" id="Lager_1" xmlns="http://www.w3.org/2000/svg" xmlns:xlink="http://www.w3.org/1999/xlink" x="0px" y="0px"
	 viewBox="0 0 300 300" style="enable-background:new 0 0 300 300;" xml:space="preserve">
<style type="text/css">
	.st0{fill:#F4F4F4;}
	.st1{fill:#2F879E;}
	.st2{fill:#69914B;}
	.st3{fill:#C39423;}
	.st4{fill:#A1618C;}
</style>
<path class="st4" d="M225.82,74.19C206.41,54.79,179.6,42.78,150,42.78c-29.6,0-56.41,12.01-75.82,31.41
	c-19.41,19.41-31.41,46.21-31.41,75.82c0,59.21,48.01,107.21,107.23,107.21c29.6,0,56.41-12.01,75.82-31.41
	c19.41-19.39,31.41-46.2,31.41-75.8C257.23,120.41,245.22,93.6,225.82,74.19z M177.11,206.63c7.36,20.23-1.85,24.84-6.27,6.85
	c-2.04-8.26-10.21-31.31-18.55-52.63c-7.24,22.27-17.88,52.22-25.89,62.49c-2.74,3.53-4.48-0.36-3.71-4.53
	c0.13-0.7,0.3-1.4,0.54-2.06c2.65-7.44,19.87-55.51,24.44-67.5c-4.95-12.11-9.55-22.49-12.53-27.54c-0.2-0.34-0.16-1.49-0.47-1.34
	c-2.11,1.09-2.26,1.61-5.72,0c-6.45-3.03-4.12-7.54-21.07-35.3c-2.38-3.91-0.02-5.77,1.92-3.83c4.8,4.8,15.03,22.44,15.03,22.44
	s2.24,0.36,2.24-1.99c0-2.37-13.4-23.67-13.4-23.67s0-7.06,3.83-2.37c3.82,4.71,13.03,23.46,13.03,23.46s3.8,0.45,2.33-3.98
	c-1.61-4.86-11.54-21.83-11.54-21.83s0-7.06,3.82-2.35c3.82,4.69,19.08,27.95,19.08,37.67c0,5.05,0,4.68-2.78,7.31
	c-0.43,0.41-0.68,1.15-0.38,1.72c2.42,4.68,6.04,12.97,10.09,22.74c5.48-13.85,16.45-41.66,22.44-55.53
	c5.68-13.12,7.72-16.81,9.21-11.76c0.47,1.59,2.78,17.96-8.37,50.68c-1.95,5.73-14.03,10.82-14.03,10.82s-1.92,6.61-4.95,16.31
	C164.59,173.38,174.37,199.11,177.11,206.63z"/>
</svg>
