<?xml version="1.0" encoding="utf-8"?>
<!-- Generator: Adobe Illustrator 23.0.2, SVG Export Plug-In . SVG Version: 6.00 Build 0)  -->
<svg version="1.1" id="Lager_1" xmlns="http://www.w3.org/2000/svg" xmlns:xlink="http://www.w3.org/1999/xlink" x="0px" y="0px"
	 viewBox="0 0 300 300" style="enable-background:new 0 0 300 300;" xml:space="preserve">
<style type="text/css">
	.st0{fill:#F4F4F4;}
	.st1{fill:#2F879E;}
	.st2{fill:#69914B;}
	.st3{fill:#C39423;}
	.st4{fill:#A1618C;}
</style>
<path class="st1" d="M225.81,74.19c-19.41-19.41-46.21-31.41-75.82-31.41c-29.6,0-56.41,12.01-75.8,31.41
	c-19.41,19.41-31.41,46.21-31.41,75.82c0,59.21,48.01,107.21,107.21,107.21c29.6,0,56.41-12.01,75.82-31.41
	c19.41-19.39,31.41-46.2,31.41-75.8C257.22,120.41,245.21,93.6,225.81,74.19z M208.64,187.82c-21.86,20.84-37.51,27.65-63.54,28.98
	c-26.04,1.33-53.33-23.35-58.97-48.79c-2.13-9.66,9.16-5.09,9.16-5.09c18.3,50.84,56.66,47.72,71.16,39.64
	c27.88-15.52,47.72-29.24,45.78-61.11c-1.11-18.12-2.08-31.79-22.95-47.25c-8.08-6-20.14-8.28-31.02-9.09
	c-14.66-1.09-29.91,0.25-43.02,6.92c-13.12,6.67-23.74,19.35-25.16,33.99c5.32,1.7,10.63,3.4,15.93,5.11
	c-7.71,5.99-14.82,12.74-21.22,20.12c-7.74-7.53-14.05-18.56-18.49-28.4c4.35-1.08,8.89,0.54,13.37,0.81
	c2.42-19.28,17.24-35.55,35.05-43.28c17.83-7.72,38.17-7.85,57.25-4.25c14.34,2.72,19.39,6.97,31.59,15.11
	c14.03,9.35,20.89,35.5,20.84,52.36C224.34,158.65,220.27,176.73,208.64,187.82z M146.14,150.62c0,1.79,0.9,6.24-5.34,6.24
	c0,0-3.57-5.34-0.9-7.11C142.57,147.95,146.14,148.84,146.14,150.62z M141.05,111.57c0.63-4.37,2.42-9.14,3.69-12.17
	c0.5-1.16,2.19-1.04,2.51,0.2c0.47,1.88,0.91,4.57,0.91,7.9c0,7.13-3.05,35.59-3.05,35.59s-2.02,5.09-3.05,1.02
	C142.07,144.11,140.05,118.69,141.05,111.57z M151.01,152.46c0,0,25.45-1.63,32.54-0.5c4.37,0.68,9.1,2.54,12.11,3.87
	c1.15,0.52,1,2.2-0.23,2.49c-1.9,0.45-4.59,0.86-7.92,0.81c-7.11-0.11-35.53-3.6-35.53-3.6S146.93,153.41,151.01,152.46z"/>
</svg>
