<?xml version="1.0" encoding="utf-8"?>
<!-- Generator: Adobe Illustrator 23.0.2, SVG Export Plug-In . SVG Version: 6.00 Build 0)  -->
<svg version="1.1" id="Lager_1" xmlns="http://www.w3.org/2000/svg" xmlns:xlink="http://www.w3.org/1999/xlink" x="0px" y="0px"
	 viewBox="0 0 215 215" style="enable-background:new 0 0 215 215;" xml:space="preserve">
<style type="text/css">
	.st0{fill:#F4F4F4;}
</style>
<path class="st0" d="M183.1,31.9C163.8,12.5,137,0.5,107.5,0.5c-29.5,0-56.3,12-75.6,31.4C12.5,51.2,0.5,78,0.5,107.5
	c0,59.1,47.9,107,107,107c29.5,0,56.3-12,75.7-31.4c19.4-19.4,31.4-46.1,31.4-75.6S202.5,51.2,183.1,31.9z M166,145.2
	c-21.8,20.8-37.4,27.6-63.4,28.9c-26,1.3-53.2-23.3-58.8-48.7c-2.1-9.6,9.1-5.1,9.1-5.1c18.3,50.7,56.5,47.6,71,39.6
	c27.8-15.5,47.6-29.2,45.7-61c-1.1-18.1-2.1-31.7-22.9-47.2c-8.1-6-20.1-8.3-31-9.1c-14.6-1.1-29.8,0.2-42.9,6.9
	C59.7,56.3,49.1,69,47.7,83.6c5.3,1.7,10.6,3.4,15.9,5.1c-7.7,6-14.8,12.7-21.2,20.1c-7.7-7.5-14-18.5-18.5-28.3
	c4.3-1.1,8.9,0.5,13.3,0.8C39.7,62,54.5,45.7,72.3,38c17.8-7.7,38.1-7.8,57.1-4.2c14.3,2.7,19.4,7,31.5,15.1
	c14,9.3,20.9,35.4,20.8,52.2C181.7,116.1,177.6,134.2,166,145.2z M103.7,108.1c0,1.8,0.9,6.2-5.3,6.2c0,0-3.6-5.3-0.9-7.1
	C100.1,105.4,103.7,106.3,103.7,108.1z M98.6,69.2c0.6-4.4,2.4-9.1,3.7-12.2c0.5-1.2,2.2-1,2.5,0.2c0.5,1.9,0.9,4.6,0.9,7.9
	c0,7.1-3,35.5-3,35.5s-2,5.1-3,1C99.6,101.6,97.6,76.2,98.6,69.2z M108.5,109.9c0,0,25.4-1.6,32.5-0.5c4.4,0.7,9.1,2.5,12.1,3.9
	c1.1,0.5,1,2.2-0.2,2.5c-1.9,0.4-4.6,0.9-7.9,0.8c-7.1-0.1-35.5-3.6-35.5-3.6S104.4,110.9,108.5,109.9z"/>
</svg>
