<?xml version="1.0" encoding="utf-8"?>
<!-- Generator: Adobe Illustrator 23.0.2, SVG Export Plug-In . SVG Version: 6.00 Build 0)  -->
<svg version="1.1" id="Lager_1" xmlns="http://www.w3.org/2000/svg" xmlns:xlink="http://www.w3.org/1999/xlink" x="0px" y="0px"
	 viewBox="0 0 215 215" style="enable-background:new 0 0 215 215;" xml:space="preserve">
<style type="text/css">
	.st0{fill:#2F879E;}
</style>
<path class="st0" d="M183.15,31.85C163.78,12.48,137.04,0.5,107.49,0.5c-29.54,0-56.29,11.99-75.64,31.35
	C12.48,51.22,0.5,77.96,0.5,107.51c0,59.09,47.91,106.99,106.99,106.99c29.54,0,56.29-11.99,75.66-31.35
	c19.37-19.35,31.35-46.11,31.35-75.64S202.51,51.22,183.15,31.85z M166.02,145.24c-21.82,20.8-37.43,27.59-63.41,28.92
	c-25.99,1.33-53.22-23.3-58.85-48.69c-2.13-9.64,9.14-5.08,9.14-5.08c18.26,50.74,56.54,47.62,71.01,39.56
	c27.82-15.49,47.62-29.18,45.69-60.98c-1.11-18.08-2.08-31.72-22.9-47.15c-8.06-5.99-20.1-8.26-30.96-9.07
	c-14.63-1.09-29.85,0.25-42.93,6.91C59.72,56.31,49.12,68.96,47.7,83.57c5.31,1.7,10.61,3.39,15.9,5.1
	c-7.69,5.98-14.79,12.71-21.18,20.08c-7.72-7.51-14.02-18.52-18.45-28.34c4.34-1.08,8.87,0.54,13.34,0.81
	c2.42-19.24,17.2-35.48,34.98-43.19c17.79-7.7,38.09-7.83,57.13-4.24c14.31,2.71,19.35,6.96,31.53,15.08
	c14,9.33,20.85,35.43,20.8,52.25C181.69,116.13,177.63,134.18,166.02,145.24z M103.65,108.12c0,1.79,0.9,6.23-5.33,6.23
	c0,0-3.56-5.33-0.9-7.1C100.09,105.45,103.65,106.34,103.65,108.12z M98.57,69.15c0.63-4.36,2.42-9.12,3.68-12.15
	c0.5-1.16,2.19-1.04,2.5,0.2c0.47,1.88,0.91,4.56,0.91,7.88c0,7.12-3.04,35.52-3.04,35.52s-2.02,5.08-3.04,1.02
	C99.59,101.62,97.57,76.25,98.57,69.15z M108.51,109.95c0,0,25.4-1.63,32.47-0.5c4.36,0.68,9.08,2.53,12.09,3.86
	c1.15,0.52,1,2.2-0.23,2.48c-1.9,0.45-4.58,0.86-7.9,0.81c-7.1-0.11-35.46-3.59-35.46-3.59S104.44,110.9,108.51,109.95z"/>
</svg>
