<?xml version="1.0" encoding="utf-8"?>
<!-- Generator: Adobe Illustrator 23.0.2, SVG Export Plug-In . SVG Version: 6.00 Build 0)  -->
<svg version="1.1" id="Lager_1" xmlns="http://www.w3.org/2000/svg" xmlns:xlink="http://www.w3.org/1999/xlink" x="0px" y="0px"
	 viewBox="0 0 215 215" style="enable-background:new 0 0 215 215;" xml:space="preserve">
<style type="text/css">
	.st0{fill:#F4F4F4;}
</style>
<g>
	<path class="st0" d="M83.3,67.8c-3.7-0.4-7.5-0.9-13.5,0.8c-3.2,0.9-2.1-0.5-2.1-0.5c0.8-1.3,7.8-1.9,13.1-1.5
		c6.3,0.5,10.9,2.4,10.9,2.4C90.8,70.3,87,68.2,83.3,67.8z"/>
	<path class="st0" d="M96.2,57c0,0,0.4-9.3,3-14.3c1.3-2.4,0.2,1.6-0.6,3.8C97.4,50,97,56.8,97,56.8S97,65.7,96.2,57z"/>
	<path class="st0" d="M102.8,88c0,0-5.2-2.8-16.6-1.9c-11.3,0.8-6.2-0.2-6.2-0.2s19-4.8,26.2,3.7C111.2,95.6,102.8,88,102.8,88z"/>
	<path class="st0" d="M116.3,82.8c0,0-1.1-4.5-1-8.3c0.2-6.2,0.8-11,4.6-14.8c3.8-3.9,2.2-0.5,2.2-0.5s-2.5,2.3-4.1,6.2
		c-2,5-0.7,18.6-0.7,18.6C116.2,85.9,116.3,82.8,116.3,82.8z"/>
	<path class="st0" d="M128.3,128.9c0,0-0.4,1.6-1.6-0.4c-4.3-7.3-19.7-12.8-19.7-12.8s-23.1-3.6-7.7-3.8
		C114.7,111.7,128.3,128.9,128.3,128.9z"/>
	<path class="st0" d="M131.9,101.9c-0.5-9.9,3.8-14.7,3.8-14.7s4.3-1.7-0.7,4s-0.2,20.8-0.2,20.8S132.4,111.8,131.9,101.9z"/>
	<path class="st0" d="M123.6,106.7c11.6,23.8,20.9,48.4,23.7,55.8c0.1,0.2-0.2,0.4-0.4,0.2l-2.5-4.4c-1.6-2.9-2.9-5.9-3.9-9
		c-5.1-15.2-12.6-30.7-22.9-48.9C107.1,81.6,91.1,63.4,72.9,45C73.8,45.4,100.9,59.9,123.6,106.7z"/>
	<path class="st0" d="M184.2,31.9c-19.4-19.4-46.1-31.4-75.7-31.4c-59.1,0-107,47.9-107,107v0c0,59.1,47.9,107,107,107
		c59.1,0,107-47.9,107-107v0C215.5,77.9,203.5,51.2,184.2,31.9z M157,181.4c-1.1-5.2-11.8-8.3-11.8-8.3s-3.6-2.3-9.4-4.2
		c-5.8-1.9-4.2-5.3-0.7-6.8c3.5-1.5-2.1-6.5-7.6-6.9c-5.5-0.4-28.6-7.9-29.1-13.9c-0.3-3.8,10.8-3.8,6.3-6.7
		c-0.5-0.3-10.2-4.3-15.2-6.1c-3.6-1.2-15.3-6.8-19.8-13.6c-4.5-6.8,4.6-11,12.2-11.8c6.3-0.7-3.9-3.9-8-5.2
		c-11.6-3.7-16.3-4.3-18.3-10c-2-5.8,4.8-7.6,13.8-7.5c10.8,0-9-2.7-12.2-10.5c-3.2-7.8,4.5-7.9,8.8-9.5c4.3-1.7,0.6-4.7-1.9-8.9
		c-2.4-4.1,1.3-4.9,3.3-6.1c2.1-1.2-2.4-8-3.4-12.4c-0.9-4.4,5.6,1.1,9.9,3.3s6.8-0.7,8.4-4.1c1.6-3.4,5.6,1.1,8.9,5.8
		c3.3,4.7,3.3,4.7,3.3,4.7s1.6-3.4,3-7.6c1.4-4.2,8.6,4.3,11.1,12.3c2.4,8,4.7,7.5,4.7,7.5s-0.2-4.6,7.7-10.9
		c4-3.1,7.7,0.7,10.1,5.7c1.4,2.8,2,5.9,1.8,9.1c-0.2,2.4-0.1,6.3,0.7,11.9c1.6,11.2,4.5,2.9,4.5,2.9s2.6-2.1,6.9-3.8
		c13.8-5.4,6.6,24,5.1,28.2c-1.4,4.2-3.4,12.8-6.8,19.1c-4.9,9.5,0.2,4.6,0.2,4.6s7.6-3.9,12.1-1c4.5,2.9-4.3,16.3-4.3,16.3
		s-5.7,16.6-0.2,13.9c5.6-2.7,10.5-1.4,5.8,5.7c-2.2,3.4,2.3,11.1,4,19.2C163,183.9,158.1,186.5,157,181.4z"/>
</g>
</svg>
