<?xml version="1.0" encoding="utf-8"?>
<!-- Generator: Adobe Illustrator 23.0.2, SVG Export Plug-In . SVG Version: 6.00 Build 0)  -->
<svg version="1.1" id="Lager_1" xmlns="http://www.w3.org/2000/svg" xmlns:xlink="http://www.w3.org/1999/xlink" x="0px" y="0px"
	 viewBox="0 0 300 300" style="enable-background:new 0 0 300 300;" xml:space="preserve">
<style type="text/css">
	.st0{fill:#F4F4F4;}
</style>
<g>
	<g>
		<g>
			<g>
				<path class="st0" d="M288.9,77.6c-1.5-4.9-2.8-9.9-6.9-13c-3.4-2.4-11-7-15.1-7.1c-83.4-2.4-145-8.2-229.3,1.1
					c-12.8,1.4-25.1,4.7-32,15.6c-3.6,5.7-5.3,19.2-5.2,25.9c0.9,46.6,1.9,75.5,8.6,122.7c4.3,30.2,57.1,24.4,82.9,24.2
					c70.4-0.6,111.9,1.2,182-5.8c3.2-0.3,6.5-0.7,9-2.6c3-2.3,4.3-6.1,5.3-9.7C301,181.6,303,124.4,288.9,77.6z M280,222.9
					c-0.9,3.4-2.1,6.9-4.9,9c-2.4,1.8-5.5,2.1-8.5,2.4c-65.9,6.4-105,4.8-171.3,5.4c-24.3,0.2-74,5.6-78.1-22.4
					c-6.3-43.6-7.3-70.3-8.1-113.5c-0.1-6.2,1.5-18.7,4.9-24c6.5-10,18.1-13.1,30.1-14.4c79.5-8.5,137.4-3.2,215.9-1
					c3.9,0.1,11.1,4.3,14.3,6.6c3.9,2.8,5.1,7.4,6.5,12C294.1,126.4,292.1,179.2,280,222.9z"/>
			</g>
		</g>
		<g>
			<g>
				<path class="st0" d="M278.6,107.5c-0.7-8.4-4.1-23.2-11.2-27.6c-6.3-3.9-30.6-6.1-38-6.9c-71-7.9-119.7-6.5-192.7,6.1
					c-7.6,1.3-15.7,7.3-16.4,12.1c-2.5,17.5,0.9,55.4,1.1,73l-0.1-1.1c1.6,45.6,4.7,48.9,5.9,52.6c4.3,13,23.5,17.1,38,17.3
					c73.5,0.9,111-3.7,179.2-3.8c9,0,19.3-0.7,24.7-7.8c2.6-3.5,5.6-19.9,6-24.2C277.3,171.5,281.6,140.6,278.6,107.5z M265.6,192.6
					c-0.4,3.9-3.1,18.8-5.6,22c-5,6.5-14.5,7.1-22.7,7.1c-63.1,0.1-97.8,4.3-165.6,3.5c-13.4-0.2-31.1-3.9-35.1-15.7
					c-1.1-3.3-3.9-6.2-5.4-46.7c-0.2-16-3.3-50.3-1-66.2c0.6-4.3,8.1-9.8,15.2-11c67.4-11.3,112.4-12.6,178-5.5
					c6.8,0.8,29.3,2.7,35.1,6.3c6.6,4.1,9.7,17.5,10.4,25.1C271.5,141.5,267.6,169.5,265.6,192.6z"/>
			</g>
		</g>
	</g>
	<g>
		<g>
			<path class="st0" d="M119.3,102.7c6.9-3.4,15.7-2.8,22.3,1.1c6.6,3.9,10.8,12.4,8.3,19.7c-2,5.9-7.5,9.9-13,12.8
				c-5.5,2.9-11.5,5.3-15.9,9.7c-4.4,4.4-6.8,11.7-3.5,17c3.5,5.5,11.7,6.2,17.5,3.2s9.6-8.6,13.1-14.1c0.7-1.1,1.6-2.4,3-2.6
				c2.1-0.3,3.5,2.1,3.8,4.2c0.6,5.4-2.9,10.4-6.9,14c-4.8,4.3-10.6,7.4-16.8,9.1c-4.7,1.2-7.7,0.2-12-2.1
				c-5.6-3.1-8.7-8.8-9.7-15.1c-0.6-3.4,1.5-13.7,5.6-17.9c1.6-1.6,4.1-4.1,10.5-6.4c5.5-1.9,11.1-4.8,14.2-9.8
				c3.1-5,1-11.8-4.1-14.8c-3.9-2.3-7.2-1.9-11.5-0.6c-5,1.5-10.9,4.5-10.8,9.7c0,1.8,0.8,3.6,0.4,5.4c-0.4,1.8-2.3,2.6-4,3.4
				c-4,2-4-8.6-4-8.6S105.6,109.4,119.3,102.7z"/>
		</g>
		<g>
			<path class="st0" d="M171,172.5c6.9-20.3,4.3-43.4,13.3-62.7c1-2.1,2.4-4.4,4.4-4.8c2.3-0.4,4.2,1.9,4.5,4.4
				c0.4,2.5-0.4,5.1-1.1,7.6c-5.4,19.3-10.1,38.9-13.8,58.6c-0.2,1.1-0.5,2.4-1.5,2.7c-0.5,0.2-1,0.1-1.4-0.1
				c-1.8-0.6-4.2-1.4-4.8-3.3C170.5,174.4,171,172.5,171,172.5z"/>
		</g>
		<g>
			<path class="st0" d="M172.7,189.1c1.1,0.3,2.2,0.8,2.9,1.7c0.5,0.6,0.8,1.4,1,2.2c0.6,3.1-1.4,6.5-4.5,7.4
				c-3,0.9-6.6-0.9-7.8-3.8C163.6,188.5,170.9,188.6,172.7,189.1z"/>
		</g>
		<g>
			<path class="st0" d="M135.7,189.1c1.1,0.2,2.2,0.8,2.9,1.7c0.5,0.6,0.8,1.4,1,2.2c0.6,3.1-1.4,6.5-4.5,7.4
				c-3,0.9-7.5-0.6-7.8-3.8C126.7,188.5,132,188.5,135.7,189.1z"/>
		</g>
	</g>
</g>
</svg>
