<?xml version="1.0" encoding="utf-8"?>
<!-- Generator: Adobe Illustrator 23.0.2, SVG Export Plug-In . SVG Version: 6.00 Build 0)  -->
<svg version="1.1" id="Lager_1" xmlns="http://www.w3.org/2000/svg" xmlns:xlink="http://www.w3.org/1999/xlink" x="0px" y="0px"
	 viewBox="0 0 300 300" style="enable-background:new 0 0 300 300;" xml:space="preserve">
<style type="text/css">
	.st0{fill:#F4F4F4;}
	.st1{fill:#2F879E;}
	.st2{fill:#69914B;}
	.st3{fill:#C39423;}
	.st4{fill:#A1618C;}
</style>
<g>
	<g>
		<g>
			<g>
				<path class="st0" d="M249.05,98.2c-1.06-3.5-1.96-7.04-4.92-9.22c-2.38-1.74-7.81-4.95-10.76-5.04
					c-59.21-1.7-102.97-5.82-162.92,0.77c-9.06,1-17.8,3.37-22.71,11.05c-2.57,4.02-3.76,13.62-3.69,18.41
					c0.61,33.12,1.38,53.65,6.14,87.16c3.08,21.46,40.58,17.32,58.92,17.16c50.02-0.42,79.52,0.84,129.28-4.11
					c2.25-0.22,4.59-0.48,6.39-1.83c2.15-1.61,3.02-4.34,3.73-6.91C257.59,172.09,259.07,131.48,249.05,98.2z M242.72,201.46
					c-0.64,2.38-1.48,4.92-3.5,6.39c-1.67,1.25-3.89,1.48-6.01,1.7c-46.84,4.56-74.6,3.41-121.7,3.82
					c-17.28,0.13-52.59,3.95-55.49-15.9c-4.5-30.97-5.2-49.96-5.78-80.64c-0.06-4.4,1.06-13.3,3.47-17.03
					c4.63-7.1,12.85-9.29,21.4-10.22c56.45-6.07,97.64-2.25,153.38-0.71c2.79,0.1,7.9,3.05,10.15,4.69
					c2.76,1.99,3.63,5.27,4.63,8.51C252.71,132.86,251.3,170.42,242.72,201.46z"/>
			</g>
		</g>
		<g>
			<g>
				<path class="st0" d="M241.73,119.48c-0.51-5.98-2.89-16.45-7.97-19.63c-4.5-2.8-21.75-4.34-27.02-4.92
					c-50.41-5.62-85.01-4.63-136.86,4.31c-5.43,0.93-11.18,5.2-11.66,8.58c-1.77,12.43,0.61,39.32,0.77,51.85l-0.06-0.8
					c1.12,32.42,3.34,34.73,4.21,37.33c3.05,9.22,16.71,12.18,26.99,12.27c52.18,0.64,78.87-2.6,127.32-2.73
					c6.36,0,13.69-0.48,17.54-5.56c1.83-2.47,3.95-14.17,4.24-17.22C240.8,164.94,243.82,142.99,241.73,119.48z M232.44,179.91
					c-0.26,2.76-2.22,13.37-3.95,15.61c-3.53,4.63-10.28,5.04-16.16,5.04c-44.79,0.1-69.46,3.05-117.65,2.51
					c-9.51-0.13-22.1-2.8-24.96-11.15c-0.8-2.35-2.8-4.43-3.82-33.16c-0.16-11.37-2.35-35.76-0.71-47.04
					c0.45-3.05,5.75-6.94,10.8-7.81c47.9-8.06,79.87-8.96,126.46-3.89c4.85,0.55,20.79,1.93,24.96,4.47
					c4.69,2.89,6.88,12.4,7.36,17.8C236.68,143.64,233.89,163.52,232.44,179.91z"/>
			</g>
		</g>
	</g>
	<g>
		<g>
			<path class="st0" d="M128.54,116.02c4.91-2.42,11.14-2.02,15.86,0.75c4.72,2.77,7.64,8.78,5.92,13.97
				c-1.4,4.21-5.31,7.05-9.23,9.12c-3.92,2.07-8.18,3.75-11.33,6.87c-3.15,3.12-4.86,8.3-2.49,12.05c2.47,3.9,8.3,4.4,12.4,2.28
				c4.1-2.12,6.85-6.11,9.34-10c0.52-0.81,1.14-1.7,2.1-1.85c1.48-0.23,2.52,1.49,2.67,2.97c0.4,3.82-2.06,7.37-4.92,9.93
				c-3.4,3.05-7.53,5.27-11.94,6.43c-3.35,0.88-5.48,0.15-8.51-1.52c-3.97-2.18-6.17-6.27-6.92-10.74
				c-0.41-2.44,1.06-9.76,3.99-12.69c1.14-1.14,2.93-2.93,7.45-4.52c3.92-1.38,7.88-3.41,10.09-6.94c2.21-3.52,0.68-8.39-2.9-10.51
				c-2.76-1.63-5.12-1.38-8.19-0.44c-3.54,1.09-7.71,3.21-7.7,6.92c0.01,1.29,0.57,2.58,0.3,3.85c-0.27,1.3-1.63,1.83-2.82,2.42
				c-2.86,1.41-2.86-6.08-2.86-6.08S118.85,120.8,128.54,116.02z"/>
		</g>
		<g>
			<path class="st0" d="M165.28,165.65c4.9-14.4,3.04-30.83,9.42-44.54c0.7-1.51,1.7-3.14,3.16-3.39c1.6-0.27,2.95,1.37,3.23,3.15
				c0.27,1.79-0.25,3.65-0.75,5.42c-3.87,13.72-7.14,27.63-9.8,41.64c-0.14,0.76-0.39,1.67-1.04,1.92c-0.34,0.13-0.7,0.04-1.02-0.08
				c-1.29-0.45-2.99-0.97-3.41-2.33C164.93,167.01,165.28,165.65,165.28,165.65z"/>
		</g>
		<g>
			<path class="st0" d="M166.46,177.41c0.78,0.22,1.56,0.57,2.09,1.18c0.37,0.43,0.59,0.98,0.7,1.54c0.44,2.21-1.03,4.63-3.19,5.26
				c-2.16,0.63-4.7-0.61-5.53-2.71C160.05,177,165.2,177.05,166.46,177.41z"/>
		</g>
		<g>
			<path class="st0" d="M140.23,177.41c0.8,0.12,1.56,0.57,2.09,1.18c0.37,0.43,0.59,0.98,0.7,1.54c0.44,2.21-1.03,4.63-3.19,5.26
				c-2.16,0.63-5.34-0.46-5.53-2.71C133.83,177,137.58,177,140.23,177.41z"/>
		</g>
	</g>
</g>
</svg>
