<?xml version="1.0" encoding="utf-8"?>
<!-- Generator: Adobe Illustrator 23.0.2, SVG Export Plug-In . SVG Version: 6.00 Build 0)  -->
<svg version="1.1" id="Lager_1" xmlns="http://www.w3.org/2000/svg" xmlns:xlink="http://www.w3.org/1999/xlink" x="0px" y="0px"
	 viewBox="0 0 154 154" style="enable-background:new 0 0 154 154;" xml:space="preserve">
<style type="text/css">
	.st0{fill:#F4F4F4;}
</style>
<g>
	<path class="st0" d="M142.1,153H13.4c-6.6,0-11.9-6.6-11.9-14.7v-4.9c0-8.1,5.3-14.7,11.9-14.7h128.7c6.6,0,11.9,6.6,11.9,14.7v4.9
		C154,146.4,148.7,153,142.1,153z"/>
	<path class="st0" d="M142.1,34.2H13.4c-6.6,0-11.9-6.6-11.9-14.7v-4.9c0-8.1,5.3-14.7,11.9-14.7h128.7c6.6,0,11.9,6.6,11.9,14.7
		v4.9C154,27.6,148.7,34.2,142.1,34.2z"/>
	<path class="st0" d="M142.1,93.6H13.4C6.8,93.6,1.5,87,1.5,78.9v-4.9c0-8.1,5.3-14.7,11.9-14.7h128.7c6.6,0,11.9,6.6,11.9,14.7v4.9
		C154,87,148.7,93.6,142.1,93.6z"/>
</g>
</svg>
