<?xml version="1.0" encoding="utf-8"?>
<!-- Generator: Adobe Illustrator 23.0.2, SVG Export Plug-In . SVG Version: 6.00 Build 0)  -->
<svg version="1.1" id="Lager_1" xmlns="http://www.w3.org/2000/svg" xmlns:xlink="http://www.w3.org/1999/xlink" x="0px" y="0px"
	 viewBox="0 0 215 215" style="enable-background:new 0 0 215 215;" xml:space="preserve">
<style type="text/css">
	.st0{fill:#F4F4F4;}
</style>
<title>TDDE42 - ikon</title>
<path class="st0" d="M182.4,32C140.6-9.8,72.9-9.8,31.1,32s-41.8,109.5,0,151.3s109.5,41.8,151.3,0c20.1-20.1,31.3-47.3,31.3-75.6
	C213.8,79.2,202.5,52,182.4,32z M97,170.4c0,0,2.4-12.4,8.8-6.5C113.6,171,107.6,181,97,170.4z M138.3,81.4
	c-5.9,17-25.9,30.6-34.2,44.8c-8.1,14,0.8,23.7,1.2,24.1c-0.4-0.2-23.3-11,8.3-49.7c23-28.2,10.6-44.3-5.9-48.5S77,74.2,77,74.2
	s-7,5.1-2.4-11.9c4.7-17.2,13.5-23.8,37.2-21.7C137.7,43,144.4,63.8,138.3,81.4L138.3,81.4z"/>
</svg>
