<svg id="Lager_1" data-name="Lager 1" xmlns="http://www.w3.org/2000/svg" viewBox="0 0 300 300"><defs><style>.cls-1{fill:#a1618c;}</style></defs><title>TDDE42 - ikon</title><path class="cls-1" d="M226.78,72.94a107.19,107.19,0,1,0,31.41,75.82A106.94,106.94,0,0,0,226.78,72.94ZM141.21,211.61s2.36-12.4,8.86-6.5C157.89,212.22,151.84,222.25,141.21,211.61Zm41.4-89.12c-5.91,17-26,30.6-34.27,44.9-8.09,14,.79,23.71,1.18,24.13-.43-.19-23.39-11,8.28-49.75,23-28.23,10.63-44.39-5.91-48.56s-30.72,22.05-30.72,22.05-7,5.12-2.37-11.92c4.73-17.28,13.55-23.82,37.22-21.71C182,84,188.72,104.88,182.61,122.49Z"/></svg>