<?xml version="1.0" encoding="utf-8"?>
<!-- Generator: Adobe Illustrator 23.0.2, SVG Export Plug-In . SVG Version: 6.00 Build 0)  -->
<svg version="1.1" id="Lager_1" xmlns="http://www.w3.org/2000/svg" xmlns:xlink="http://www.w3.org/1999/xlink" x="0px" y="0px"
	 viewBox="0 0 215 215" style="enable-background:new 0 0 215 215;" xml:space="preserve">
<style type="text/css">
	.st0{fill:#A1618C;}
</style>
<title>TDDE42 - ikon</title>
<path class="st0" d="M182.41,31.95C140.62-9.83,72.87-9.82,31.09,31.98s-41.76,109.54,0.03,151.32s109.54,41.76,151.32-0.03
	c20.05-20.06,31.32-47.27,31.32-75.64C213.79,79.24,202.51,52,182.41,31.95z M96.99,170.37c0,0,2.36-12.38,8.84-6.49
	C113.64,170.98,107.6,180.99,96.99,170.37z M138.32,81.41c-5.9,16.97-25.95,30.55-34.21,44.82c-8.08,13.98,0.79,23.67,1.18,24.09
	c-0.43-0.19-23.35-10.98,8.27-49.66c22.96-28.18,10.61-44.31-5.9-48.47S76.99,74.19,76.99,74.19S70,79.3,74.62,62.29
	c4.72-17.25,13.53-23.78,37.15-21.67C137.71,42.99,144.42,63.83,138.32,81.41L138.32,81.41z"/>
</svg>
