<?xml version="1.0" encoding="utf-8"?>
<!-- Generator: Adobe Illustrator 23.0.2, SVG Export Plug-In . SVG Version: 6.00 Build 0)  -->
<svg version="1.1" id="Lager_1" xmlns="http://www.w3.org/2000/svg" xmlns:xlink="http://www.w3.org/1999/xlink" x="0px" y="0px"
	 viewBox="0 0 73.7 73.7" style="enable-background:new 0 0 73.7 73.7;" xml:space="preserve">
<style type="text/css">
	.st0{fill:#F4F4F4;}
</style>
<g>
	<g>
		<path class="st0" d="M31.6,69.3c2.5-21,0.7-34.7,1.3-57.6c0.5-2.2,0.2-10.4,2-11.2c2.2-0.9,4.5,0.9,5.3,3.3c0.9,2.3,0.7,5,0.5,7.6
			c-1.3,19.8-1.8,39.7-1.3,59.4c0,1.1,0,2.4-0.9,2.9c-0.4,0.3-1,0.3-1.4,0.2c-1.9-0.2-4.4-0.4-5.4-2.2
			C31.6,71.2,31.6,69.3,31.6,69.3z"/>
	</g>
	<g>
		<path class="st0" d="M68.6,42.5c-21-2.6-42.8,0-63.3-0.1c-2.2-0.5-4.7-1.4-5.5-3.3c-0.9-2.2,1-4.5,3.3-5.3c2.3-0.9,5-0.7,7.6-0.5
			c19.7,1.3,37.4,0.9,57.2,0.5c1.1,0,4.6,0.9,5.1,1.8c0.3,0.4,0.3,1,0.2,1.4C73,39,72.7,41.5,71,42.4C70.6,42.6,68.6,42.5,68.6,42.5
			z"/>
	</g>
</g>
</svg>
