<?xml version="1.0" encoding="utf-8"?>
<!-- Generator: Adobe Illustrator 23.0.2, SVG Export Plug-In . SVG Version: 6.00 Build 0)  -->
<svg version="1.1" id="Lager_1" xmlns="http://www.w3.org/2000/svg" xmlns:xlink="http://www.w3.org/1999/xlink" x="0px" y="0px"
	 viewBox="0 0 300 197" style="enable-background:new 0 0 300 197;" xml:space="preserve">
<style type="text/css">
	.st0{fill:#F4F4F4;}
</style>
<g>
	<g>
		<g>
			<g>
				<path class="st0" d="M288.9,25.6c-1.5-4.9-2.8-9.9-6.9-13c-3.4-2.4-11-7-15.1-7.1c-83.4-2.4-145-8.2-229.3,1.1
					C24.8,8,12.5,11.3,5.6,22.2C2,27.9,0.3,41.4,0.4,48.1C1.3,94.7,2.3,123.6,9,170.8c4.3,30.2,57.1,24.4,82.9,24.2
					c70.4-0.6,111.9,1.2,182-5.8c3.2-0.3,6.5-0.7,9-2.6c3-2.3,4.3-6.1,5.3-9.7C301,129.6,303,72.4,288.9,25.6z M280,170.9
					c-0.9,3.4-2.1,6.9-4.9,9c-2.4,1.8-5.5,2.1-8.5,2.4c-65.9,6.4-105,4.8-171.3,5.4c-24.3,0.2-74,5.6-78.1-22.4
					C10.9,121.7,9.9,95,9.1,51.8c-0.1-6.2,1.5-18.7,4.9-24c6.5-10,18.1-13.1,30.1-14.4c79.5-8.5,137.4-3.2,215.9-1
					c3.9,0.1,11.1,4.3,14.3,6.6c3.9,2.8,5.1,7.4,6.5,12C294.1,74.4,292.1,127.2,280,170.9z"/>
			</g>
		</g>
		<g>
			<g>
				<path class="st0" d="M278.6,55.5c-0.7-8.4-4.1-23.2-11.2-27.6c-6.3-3.9-30.6-6.1-38-6.9c-71-7.9-119.7-6.5-192.7,6.1
					c-7.6,1.3-15.7,7.3-16.4,12.1c-2.5,17.5,0.9,55.4,1.1,73l-0.1-1.1c1.6,45.6,4.7,48.9,5.9,52.6c4.3,13,23.5,17.1,38,17.3
					c73.5,0.9,111-3.7,179.2-3.8c9,0,19.3-0.7,24.7-7.8c2.6-3.5,5.6-19.9,6-24.2C277.3,119.5,281.6,88.6,278.6,55.5z M265.6,140.6
					c-0.4,3.9-3.1,18.8-5.6,22c-5,6.5-14.5,7.1-22.7,7.1c-63.1,0.1-97.8,4.3-165.6,3.5c-13.4-0.2-31.1-3.9-35.1-15.7
					c-1.1-3.3-3.9-6.2-5.4-46.7c-0.2-16-3.3-50.3-1-66.2c0.6-4.3,8.1-9.8,15.2-11c67.4-11.3,112.4-12.6,178-5.5
					c6.8,0.8,29.3,2.7,35.1,6.3c6.6,4.1,9.7,17.5,10.4,25.1C271.5,89.5,267.6,117.5,265.6,140.6z"/>
			</g>
		</g>
	</g>
	<g>
		<g>
			<path class="st0" d="M136.6,117.9c1.2,0.4,2.4,1.2,3.2,2.4c0.6,0.9,0.9,2,1.1,3.2c0.7,4.5-1.6,9.4-5,10.7
				c-3.3,1.3-7.3-1.3-8.6-5.5C126.5,117,134.6,117.2,136.6,117.9z"/>
		</g>
		<g>
			<path class="st0" d="M168.6,118.6c1.3,0.2,2.6,1,3.6,2.2c0.7,0.8,1.2,1.9,1.6,3.1c1.4,4.4,0.1,9.4-3.1,10.9
				c-3.1,1.5-8.4-0.3-9.5-4.9C158.5,118.4,164.4,118,168.6,118.6z"/>
		</g>
		<path class="st0" d="M108.4,97.1c0,0-2.9-34.7,25.7-39.5c16.2-2.7,43.3-5.8,53.9,15s4,32,4,32s-1.4,7.3-5.6-4.9
			s-5.1-36.5-36.5-35.9c-30.8,0.6-26.7,13.6-32.3,35.4C114.2,112.1,108.4,97.1,108.4,97.1z"/>
	</g>
</g>
</svg>
