<?xml version="1.0" encoding="utf-8"?>
<!-- Generator: Adobe Illustrator 23.0.2, SVG Export Plug-In . SVG Version: 6.00 Build 0)  -->
<svg version="1.1" id="Lager_1" xmlns="http://www.w3.org/2000/svg" xmlns:xlink="http://www.w3.org/1999/xlink" x="0px" y="0px"
	 viewBox="0 0 300 300" style="enable-background:new 0 0 300 300;" xml:space="preserve">
<style type="text/css">
	.st0{fill:#F4F4F4;}
	.st1{fill:#2F879E;}
	.st2{fill:#69914B;}
	.st3{fill:#C39423;}
	.st4{fill:#A1618C;}
</style>
<g>
	<path class="st0" d="M228.76,220.04H69.24c-8.14,0-14.74-6.6-14.74-14.74v-4.92c0-8.14,6.6-14.74,14.74-14.74h159.51
		c8.14,0,14.74,6.6,14.74,14.74v4.92C243.5,213.44,236.9,220.04,228.76,220.04z"/>
	<path class="st0" d="M228.76,101.18H69.24c-8.14,0-14.74-6.6-14.74-14.74v-4.92c0-8.14,6.6-14.74,14.74-14.74h159.51
		c8.14,0,14.74,6.6,14.74,14.74v4.92C243.5,94.58,236.9,101.18,228.76,101.18z"/>
	<path class="st0" d="M228.76,160.61H69.24c-8.14,0-14.74-6.6-14.74-14.74v-4.92c0-8.14,6.6-14.74,14.74-14.74h159.51
		c8.14,0,14.74,6.6,14.74,14.74v4.92C243.5,154.01,236.9,160.61,228.76,160.61z"/>
</g>
</svg>
